<svg width="21" height="21" viewBox="0 0 21 21" fill="none" xmlns="http://www.w3.org/2000/svg">
<path d="M7.30785 11.5916L4.54785 13.8796" stroke="currentColor" stroke-width="1.5" stroke-linecap="round" stroke-linejoin="round"/>
<path d="M4.54785 13.9392V19.6512" stroke="currentColor" stroke-width="1.5" stroke-linecap="round" stroke-linejoin="round"/>
<path d="M1 19.783H8.1" stroke="currentColor" stroke-width="1.5" stroke-linecap="round" stroke-linejoin="round"/>
<path d="M17.0599 9.07911L16.1079 7.73511" stroke="currentColor" stroke-width="1.5" stroke-linecap="round" stroke-linejoin="round"/>
<path d="M13.3519 3.84757L12.3999 2.50757" stroke="currentColor" stroke-width="1.5" stroke-linecap="round" stroke-linejoin="round"/>
<path d="M13.4558 11.7637L12.5078 10.4197" stroke="currentColor" stroke-width="1.5" stroke-linecap="round" stroke-linejoin="round"/>
<path d="M9.7479 6.53116L8.7959 5.19116" stroke="currentColor" stroke-width="1.5" stroke-linecap="round" stroke-linejoin="round"/>
<path d="M12.8446 2.18947L8.02601 5.63544C6.33511 6.84468 5.94463 9.1957 7.15386 10.8866L7.58897 11.495C8.79821 13.1859 11.1492 13.5764 12.8401 12.3672L17.6588 8.92121C19.3497 7.71198 19.7401 5.36095 18.5309 3.67005L18.0958 3.06162C16.8866 1.37071 14.5355 0.980236 12.8446 2.18947Z" stroke="currentColor" stroke-width="1.5" stroke-linecap="round" stroke-linejoin="round"/>
</svg>
