<svg width="24" height="24" viewBox="0 0 24 24" fill="none" xmlns="http://www.w3.org/2000/svg">
<path d="M3.7 13.4296C3.95196 13.351 4.22475 13.3753 4.45891 13.4971C4.69306 13.6188 4.86958 13.8282 4.95 14.0796C5.42243 15.524 6.34344 16.7801 7.57903 17.665C8.81463 18.5499 10.3003 19.0174 11.82 18.9996C13.6997 19.0209 15.5111 18.296 16.857 16.9838C18.203 15.6716 18.9736 13.8792 19 11.9996C18.9736 10.12 18.203 8.32755 16.857 7.01533C15.5111 5.70311 13.6997 4.9782 11.82 4.99957C10.1224 4.99547 8.47709 5.58638 7.17 6.66957L9.34 6.30957C9.47005 6.28817 9.60305 6.29269 9.73135 6.32287C9.85965 6.35306 9.98072 6.4083 10.0876 6.48544C10.1945 6.56257 10.285 6.66007 10.3541 6.77233C10.4232 6.88459 10.4693 7.0094 10.49 7.13957C10.5114 7.26962 10.5069 7.40262 10.4767 7.53092C10.4465 7.65922 10.3913 7.78029 10.3141 7.88716C10.237 7.99403 10.1395 8.08461 10.0272 8.15367C9.91498 8.22273 9.79017 8.26891 9.66 8.28957L5.42 8.98957H5.25C5.13405 8.98943 5.019 8.96913 4.91 8.92957C4.87337 8.91567 4.83951 8.89535 4.81 8.86957C4.7383 8.84291 4.67091 8.80585 4.61 8.75957L4.52 8.64957C4.52 8.59957 4.43 8.55957 4.39 8.49957C4.35 8.43957 4.39 8.39957 4.34 8.35957C4.31237 8.30133 4.28897 8.24118 4.27 8.17957L3.52 4.17957C3.49505 4.04825 3.49621 3.9133 3.52341 3.78242C3.55061 3.65155 3.60333 3.52731 3.67854 3.41681C3.75376 3.30631 3.85 3.21171 3.96178 3.1384C4.07355 3.06509 4.19868 3.01452 4.33 2.98957C4.46132 2.96462 4.59627 2.96578 4.72715 2.99298C4.85802 3.02018 4.98225 3.0729 5.09276 3.14811C5.31592 3.30002 5.46961 3.53435 5.52 3.79957L5.79 5.24957C7.46401 3.79881 9.60482 3 11.82 2.99957C14.2301 2.97824 16.5502 3.91387 18.2712 5.60115C19.9922 7.28843 20.9736 9.58955 21 11.9996C20.9736 14.4096 19.9922 16.7107 18.2712 18.398C16.5502 20.0853 14.2301 21.0209 11.82 20.9996C9.86686 21.0296 7.95569 20.4317 6.36787 19.2939C4.78005 18.1562 3.59949 16.5387 3 14.6796C2.96207 14.5515 2.95016 14.4172 2.96498 14.2845C2.9798 14.1518 3.02105 14.0234 3.0863 13.9069C3.15154 13.7904 3.23946 13.6881 3.34486 13.6061C3.45026 13.5242 3.57102 13.4641 3.7 13.4296Z" fill="currentColor"/>
</svg>
