<svg width="22" height="21" viewBox="0 0 22 21" fill="none" xmlns="http://www.w3.org/2000/svg">
<path d="M14.0437 17.5357L3.45167 20.1637C3.12089 20.2404 2.77604 20.2316 2.4496 20.1381C2.12316 20.0447 1.82588 19.8697 1.58579 19.6296C1.34569 19.3895 1.17067 19.0922 1.07723 18.7657C0.983782 18.4393 0.974987 18.0944 1.05167 17.7637L3.69167 7.27567C3.90997 6.40823 4.36044 5.61665 4.99469 4.98592C5.62895 4.35519 6.42303 3.90914 7.29167 3.69567L17.8517 1.05167C18.1824 0.974987 18.5273 0.983782 18.8537 1.07723C19.1802 1.17067 19.4775 1.34569 19.7175 1.58579C19.9576 1.82588 20.1327 2.12316 20.2261 2.4496C20.3196 2.77604 20.3284 3.12089 20.2517 3.45167L17.6117 13.9397C17.3985 14.8061 16.954 15.5983 16.3256 16.2317C15.6971 16.8651 14.9084 17.3158 14.0437 17.5357V17.5357Z" stroke="currentColor" stroke-width="1.5" stroke-miterlimit="10"/>
<path d="M10.6517 13.4117C12.2003 13.4117 13.4557 12.1563 13.4557 10.6077C13.4557 9.0591 12.2003 7.80371 10.6517 7.80371C9.10305 7.80371 7.84766 9.0591 7.84766 10.6077C7.84766 12.1563 9.10305 13.4117 10.6517 13.4117Z" stroke="currentColor" stroke-width="1.5" stroke-miterlimit="10"/>
</svg>
