<svg width="21" height="21" viewBox="0 0 21 21" fill="none" xmlns="http://www.w3.org/2000/svg">
<path d="M16.032 1H5.18C2.87145 1 1 2.87145 1 5.18V16.032C1 18.3406 2.87145 20.212 5.18 20.212H16.032C18.3406 20.212 20.212 18.3406 20.212 16.032V5.18C20.212 2.87145 18.3406 1 16.032 1Z" stroke="currentColor" stroke-width="1.5" stroke-miterlimit="10"/>
<path d="M9.21214 16.312C10.6326 16.312 11.7841 15.1604 11.7841 13.74C11.7841 12.3195 10.6326 11.168 9.21214 11.168C7.79166 11.168 6.64014 12.3195 6.64014 13.74C6.64014 15.1604 7.79166 16.312 9.21214 16.312Z" stroke="currentColor" stroke-width="1.5" stroke-miterlimit="10"/>
<path d="M14.9318 4.88379L11.7798 6.33179V13.8998" stroke="currentColor" stroke-width="1.5" stroke-miterlimit="10" stroke-linecap="round"/>
</svg>
